<mxfile host="app.diagrams.net" modified="2022-08-13T03:45:00.012Z" agent="5.0 (Windows NT 10.0; Win64; x64) AppleWebKit/537.36 (KHTML, like Gecko) Chrome/103.0.0.0 Safari/537.36" etag="WxJ-_cnPyoXcJjprI7Li" version="20.2.3" type="github">
  <diagram id="JJSmibT1EJX7LFbNk_5x" name="第 1 页">
    <mxGraphModel dx="2062" dy="1058" grid="1" gridSize="10" guides="1" tooltips="1" connect="1" arrows="1" fold="1" page="1" pageScale="1" pageWidth="1200" pageHeight="1920" math="0" shadow="0">
      <root>
        <mxCell id="0" />
        <mxCell id="1" parent="0" />
        <mxCell id="6_0Nt4mXFQ0J_Uwlxax1-1" value="" style="shape=folder;fontStyle=1;spacingTop=10;tabWidth=40;tabHeight=14;tabPosition=left;html=1;fontSize=18;verticalAlign=top;fillColor=#fff2cc;strokeColor=#d6b656;" vertex="1" parent="1">
          <mxGeometry x="41.5" y="980" width="1118.5" height="170" as="geometry" />
        </mxCell>
        <mxCell id="6_0Nt4mXFQ0J_Uwlxax1-2" value="JCYW-01&#xa;日志组件" style="shape=module;align=center;spacingLeft=20;align=center;verticalAlign=middle;whiteSpace=wrap;labelPosition=center;verticalLabelPosition=middle;fillColor=#dae8fc;strokeColor=#6c8ebf;" vertex="1" parent="1">
          <mxGeometry x="274" y="1050" width="110" height="50" as="geometry" />
        </mxCell>
        <mxCell id="6_0Nt4mXFQ0J_Uwlxax1-3" value="JCYW-02&#xa;注册中心" style="shape=module;align=center;spacingLeft=20;align=center;verticalAlign=middle;whiteSpace=wrap;labelPosition=center;verticalLabelPosition=middle;fillColor=#dae8fc;strokeColor=#6c8ebf;" vertex="1" parent="1">
          <mxGeometry x="410" y="1050" width="110" height="50" as="geometry" />
        </mxCell>
        <mxCell id="6_0Nt4mXFQ0J_Uwlxax1-4" value="JCYW-03&#xa;配置中心" style="shape=module;align=center;spacingLeft=20;align=center;verticalAlign=middle;whiteSpace=wrap;labelPosition=center;verticalLabelPosition=middle;fillColor=#dae8fc;strokeColor=#6c8ebf;" vertex="1" parent="1">
          <mxGeometry x="545" y="1050" width="110" height="50" as="geometry" />
        </mxCell>
        <mxCell id="6_0Nt4mXFQ0J_Uwlxax1-5" value="JCYW-04&#xa;网关组件" style="shape=module;align=center;spacingLeft=20;align=center;verticalAlign=middle;whiteSpace=wrap;labelPosition=center;verticalLabelPosition=middle;fillColor=#dae8fc;strokeColor=#6c8ebf;" vertex="1" parent="1">
          <mxGeometry x="681" y="1050" width="110" height="50" as="geometry" />
        </mxCell>
        <mxCell id="6_0Nt4mXFQ0J_Uwlxax1-6" value="JCYW-05&#xa;安全组件" style="shape=module;align=center;spacingLeft=20;align=center;verticalAlign=middle;whiteSpace=wrap;labelPosition=center;verticalLabelPosition=middle;fillColor=#dae8fc;strokeColor=#6c8ebf;" vertex="1" parent="1">
          <mxGeometry x="817" y="1050" width="110" height="50" as="geometry" />
        </mxCell>
        <mxCell id="6_0Nt4mXFQ0J_Uwlxax1-7" value="" style="shape=folder;fontStyle=1;spacingTop=10;tabWidth=40;tabHeight=14;tabPosition=left;html=1;fontSize=18;verticalAlign=top;fillColor=#fff2cc;strokeColor=#d6b656;" vertex="1" parent="1">
          <mxGeometry x="41.5" y="980" width="1118.5" height="170" as="geometry" />
        </mxCell>
        <mxCell id="6_0Nt4mXFQ0J_Uwlxax1-8" value="JCYW-01&#xa;静态参数组件" style="shape=module;align=center;spacingLeft=20;align=center;verticalAlign=middle;whiteSpace=wrap;labelPosition=center;verticalLabelPosition=middle;fillColor=#dae8fc;strokeColor=#6c8ebf;" vertex="1" parent="1">
          <mxGeometry x="80" y="1050" width="110" height="50" as="geometry" />
        </mxCell>
        <mxCell id="6_0Nt4mXFQ0J_Uwlxax1-9" value="JCYW-02&#xa;动态参数组件" style="shape=module;align=center;spacingLeft=20;align=center;verticalAlign=middle;whiteSpace=wrap;labelPosition=center;verticalLabelPosition=middle;fillColor=#dae8fc;strokeColor=#6c8ebf;" vertex="1" parent="1">
          <mxGeometry x="216" y="1050" width="110" height="50" as="geometry" />
        </mxCell>
        <mxCell id="6_0Nt4mXFQ0J_Uwlxax1-10" value="JCYW-03&#xa;数据缓存组件" style="shape=module;align=center;spacingLeft=20;align=center;verticalAlign=middle;whiteSpace=wrap;labelPosition=center;verticalLabelPosition=middle;fillColor=#dae8fc;strokeColor=#6c8ebf;" vertex="1" parent="1">
          <mxGeometry x="351" y="1050" width="110" height="50" as="geometry" />
        </mxCell>
        <mxCell id="6_0Nt4mXFQ0J_Uwlxax1-11" value="JCYW-04&#xa;日志组件" style="shape=module;align=center;spacingLeft=20;align=center;verticalAlign=middle;whiteSpace=wrap;labelPosition=center;verticalLabelPosition=middle;fillColor=#dae8fc;strokeColor=#6c8ebf;" vertex="1" parent="1">
          <mxGeometry x="487" y="1050" width="110" height="50" as="geometry" />
        </mxCell>
        <mxCell id="6_0Nt4mXFQ0J_Uwlxax1-12" value="JCYW-05&#xa;系统配置组件" style="shape=module;align=center;spacingLeft=20;align=center;verticalAlign=middle;whiteSpace=wrap;labelPosition=center;verticalLabelPosition=middle;fillColor=#dae8fc;strokeColor=#6c8ebf;" vertex="1" parent="1">
          <mxGeometry x="623" y="1050" width="110" height="50" as="geometry" />
        </mxCell>
        <mxCell id="6_0Nt4mXFQ0J_Uwlxax1-13" value="JCYW-06&#xa;授权管理配置" style="shape=module;align=center;spacingLeft=20;align=center;verticalAlign=middle;whiteSpace=wrap;labelPosition=center;verticalLabelPosition=middle;fillColor=#dae8fc;strokeColor=#6c8ebf;" vertex="1" parent="1">
          <mxGeometry x="756" y="1050" width="110" height="50" as="geometry" />
        </mxCell>
        <mxCell id="6_0Nt4mXFQ0J_Uwlxax1-14" value="JCYW-07&#xa;消息管理组件" style="shape=module;align=center;spacingLeft=20;align=center;verticalAlign=middle;whiteSpace=wrap;labelPosition=center;verticalLabelPosition=middle;fillColor=#dae8fc;strokeColor=#6c8ebf;" vertex="1" parent="1">
          <mxGeometry x="890" y="1050" width="110" height="50" as="geometry" />
        </mxCell>
        <mxCell id="6_0Nt4mXFQ0J_Uwlxax1-15" value="JCYW-08&#xa;算法分析组件" style="shape=module;align=center;spacingLeft=20;align=center;verticalAlign=middle;whiteSpace=wrap;labelPosition=center;verticalLabelPosition=middle;fillColor=#dae8fc;strokeColor=#6c8ebf;" vertex="1" parent="1">
          <mxGeometry x="1020" y="1050" width="110" height="50" as="geometry" />
        </mxCell>
      </root>
    </mxGraphModel>
  </diagram>
</mxfile>
